# xmcd
#
# Track frame offsets:
#	150
#	14985
#	25875
#	44177
#	61512
#	74080
#	89780
#	102680
#	120815
#	136367
#	148235
#	165370
#	182005
#	194532
#	207155
#	218330
#	239265
#	258372
#	274310
#	293430
#
# Disc length: 4114 seconds
#
# Revision: 1
# Processed by: cddbd v1.5.2PL0 Copyright (c) Steve Scherf et al.
# Submitted via: audiograbber 1.83.01
#
DISCID=37101014
DTITLE=The Flying Burrito Brothers - The Live Collection
DYEAR=1993
DGENRE=Country
TTITLE0=Streets of Baltimore
TTITLE1=Cash on the Barrelhead
TTITLE2=Mystery Train
TTITLE3=Christie's Tune (Devil in Disguise)
TTITLE4=Take a City Bride
TTITLE5=Come a little closer
TTITLE6=Blue Eyes
TTITLE7=Citizen Cane
TTITLE8=Don't go down the Drain
TTITLE9=Help is on it's way
TTITLE10=Big Bayou
TTITLE11=White Line Fever
TTITLE12=Dim Lights, thick Smoke, (and loud, loud Music)
TTITLE13=There'll be no Teardrops Tonight
TTITLE14=Rollin' in my sweet Baby's Arms
TTITLE15=Hot Burrito
TTITLE16=Colorado
TTITLE17=Rocky Top
TTITLE18=Six Days on the Road
TTITLE19=Truck drivin' Man
EXTD=
EXTT0=
EXTT1=
EXTT2=
EXTT3=
EXTT4=
EXTT5=
EXTT6=
EXTT7=
EXTT8=
EXTT9=
EXTT10=
EXTT11=
EXTT12=
EXTT13=
EXTT14=
EXTT15=
EXTT16=
EXTT17=
EXTT18=
EXTT19=
PLAYORDER=
